<?xml version="1.0" standalone="no"?>
<!DOCTYPE svg PUBLIC "-//W3C//DTD SVG 20010904//EN"
 "http://www.w3.org/TR/2001/REC-SVG-20010904/DTD/svg10.dtd">
<svg version="1.0" xmlns="http://www.w3.org/2000/svg"
 width="512.000000pt" height="512.000000pt" viewBox="0 0 512.000000 512.000000"
 preserveAspectRatio="xMidYMid meet">
<metadata>
Created by potrace 1.14, written by Peter Selinger 2001-2017
</metadata>
<g transform="translate(0.000000,512.000000) scale(0.100000,-0.100000)"
fill="#000000" stroke="none">
<path d="M1545 4910 c-203 -41 -415 -141 -475 -224 -14 -19 -15 -26 -11 -56 3
-26 98 -54 216 -65 39 -3 86 -8 105 -10 19 -2 61 -6 92 -9 98 -9 259 -46 350
-80 105 -39 181 -84 256 -151 53 -47 142 -157 142 -176 0 -4 -20 5 -44 22 -84
56 -330 153 -418 164 -15 2 -35 6 -45 9 -67 19 -326 27 -453 14 -287 -30 -536
-135 -694 -294 -109 -111 -174 -211 -259 -404 -22 -49 -63 -195 -77 -271 -15
-80 -21 -231 -11 -248 6 -9 38 16 107 86 237 235 466 401 721 520 286 134 502
182 793 178 96 -2 186 -5 200 -8 14 -3 43 -8 65 -12 49 -7 64 -20 27 -23 -15
-1 -85 -14 -157 -28 -684 -134 -1129 -396 -1334 -784 -156 -295 -175 -633 -60
-1036 45 -158 154 -414 169 -397 4 5 15 40 25 78 49 192 178 491 297 688 105
173 292 425 412 553 118 127 312 313 381 365 17 13 32 26 35 29 32 35 311 230
380 265 28 14 18 0 -55 -76 -306 -318 -493 -683 -541 -1054 -10 -76 -11 -296
-1 -355 23 -145 43 -220 85 -320 147 -352 445 -587 782 -616 56 -4 69 -3 65 8
-2 7 -27 92 -54 188 -54 194 -98 380 -117 500 -3 19 -7 46 -9 60 -5 32 -15 96
-20 135 -25 194 -24 539 1 725 6 43 25 170 29 190 18 90 38 177 54 230 l18 65
17 -40 c56 -132 153 -448 182 -595 3 -14 11 -50 19 -80 8 -30 17 -75 20 -100
4 -24 8 -47 10 -50 2 -4 6 -28 10 -56 3 -27 7 -56 10 -64 2 -8 6 -37 10 -65 3
-27 8 -65 11 -83 9 -70 13 -100 19 -162 3 -36 8 -83 10 -105 25 -241 25 -864
0 -1130 -2 -22 -6 -67 -9 -101 -6 -68 -25 -236 -31 -274 -2 -14 -6 -44 -10
-67 -7 -42 -6 -43 42 -73 52 -34 149 -66 228 -75 59 -7 179 -7 218 0 15 3 37
7 50 9 75 14 196 78 198 104 1 10 2 31 4 47 23 210 23 667 1 960 -6 79 -17
190 -21 215 -2 14 -9 61 -15 105 -6 44 -12 91 -15 105 -2 14 -11 68 -20 120
-74 435 -229 921 -411 1291 -62 126 -178 319 -240 401 l-44 58 63 -24 c276
-104 613 -298 862 -495 247 -195 518 -466 687 -689 23 -31 45 -59 48 -62 15
-14 190 -268 190 -276 0 -12 29 -34 34 -25 8 12 42 182 50 241 17 138 19 178
20 310 1 80 -2 170 -6 200 -4 30 -10 76 -13 101 -2 25 -16 88 -29 141 -125
493 -466 803 -1015 923 -11 3 -29 7 -38 9 -10 2 -40 7 -68 11 -27 4 -61 9 -75
11 -120 18 -474 25 -638 12 -99 -8 -98 -7 15 74 436 312 966 334 1528 64 72
-34 156 -79 188 -99 32 -20 62 -37 67 -37 6 0 10 -4 10 -10 0 -5 6 -10 13 -10
12 0 123 -79 206 -148 l44 -36 -7 49 c-15 96 -88 267 -164 385 -196 303 -480
521 -782 603 -136 37 -148 39 -325 42 -297 6 -501 -47 -693 -178 -97 -67 -176
-155 -284 -319 -50 -76 -95 -138 -99 -138 -5 0 -9 10 -9 23 0 37 -49 197 -85
274 -101 218 -272 355 -510 409 -70 16 -309 12 -400 -6z"/>
</g>
</svg>
